<?xml version="1.0" encoding="UTF-8"?>
<svg width="360px" height="144px" viewBox="0 0 360 144" version="1.1" xmlns="http://www.w3.org/2000/svg" xmlns:xlink="http://www.w3.org/1999/xlink">
    <title>logo fake</title>
    <g id="logo-fake" stroke="none" stroke-width="1" fill="none" fill-rule="evenodd">
        <polygon id="Path" fill="#0058AB" points="359.95 144 0 144 0 0 360 0 360 144"></polygon>
        <path d="M7.2,72 C7.2,107.399 79.618,136.8 180.025,136.8 C280.433,136.8 352.8,107.399 352.8,72 C352.8,36.601 280.382,7.2 180.025,7.2 C79.671,7.2 7.2,36.601 7.2,72 Z" id="Path" fill="#FBD914"></path>
        <path d="M322.265,43.2 C326.081,43.15 329.227,46.073 329.281,49.799 L329.281,50.051 C329.382,53.827 326.34,57.003 322.419,57.103 C318.549,57.204 315.298,54.23 315.194,50.403 C315.244,50.302 315.244,50.151 315.244,50.05 L315.245,50.051 C315.09,46.375 318.031,43.301 321.801,43.2 L322.265,43.2 Z M316.638,49.648 L316.638,50.051 C316.638,53.071 319.169,55.541 322.265,55.541 C325.361,55.541 327.888,53.071 327.888,50.051 C327.888,47.027 325.361,44.561 322.265,44.561 C319.27,44.46 316.743,46.728 316.638,49.648 Z M322.78,45.872 C324.278,45.922 325.412,47.078 325.412,48.54 C325.412,49.548 324.843,50.455 323.914,50.959 L325.721,54.131 L324.328,54.131 L322.676,51.211 L320.872,51.211 L320.872,54.13 L319.634,54.13 L319.634,45.872 L322.78,45.872 Z M322.73,47.178 L320.872,47.178 L320.872,50.051 L322.575,50.051 C323.399,50.101 324.123,49.497 324.123,48.69 C324.123,47.884 323.554,47.178 322.73,47.178 Z" id="Combined-Shape" fill="#0058A3" transform="translate(322.238722, 50.152433) scale(-1, 1) translate(-322.238722, -50.152433) "></path>
        <path d="M308.124,45.972 C307.714,47.48 308.538,48.942 309.107,50.454 C309.76311,52.05728 313.579416,61.7512097 317.434808,71.5658929 L318.142665,73.3681187 C321.912603,82.9677216 325.53668,92.21496 326.081,93.618 L326.081,93.618 C326.599,95.278 327.474,96.79 328.612,98.1 L294.66,98.1 C294.815,96.588 294.246,95.126 293.627,93.618 C293.627,93.618 293.112,92.408 292.389,90.644 L292.079,89.888 L272.524,89.888 L272.214,90.694 L272.201502,90.726236 C272.115452,90.9486389 271.600217,92.2874783 271.13,93.668 C270.615,95.176 270.046,96.638 270.252,98.15 L243.475,98.15 C244.559,96.84 245.383,95.328 245.898,93.668 L261.947,50.454 C262.512,48.942 263.081,47.48 262.876,45.972 L308.124,45.972 Z M282.017,63.346 C281.812,64.505 281.502,65.664 281.088,66.773 C280.933,67.277 278.921,72.565 276.599,78.858 L287.795,78.858 L283.05,66.773 C282.636,65.664 282.276,64.505 282.017,63.346 Z" id="Combined-Shape" fill="#0058A3"></path>
        <path d="M36.774,50.532 L36.774,93.746 C36.774,95.254 36.774,96.716 36,98.228 L98.64,98.228 L98.64,83.724 C97.092,84.476 95.594,84.476 94.046,84.476 L67.68,84.476 L67.68,77.629 L93.013,77.629 L93.013,66.649 L67.68,66.649 L67.68,59.748 L94.046,59.748 C95.594,59.748 97.092,59.748 98.64,60.454 L98.64,46 L36,46 C36.774,47.559 36.774,49.02 36.774,50.532 Z" id="E" fill="#0058A3"></path>
        <path d="M234.213,93.618 C235.347,95.227 236.585,96.739 238.033,98.1 L199.074,98.1 C199.074,96.588 197.58,93.517 195.928,91.098 C194.276,88.682 185.351,75.434 185.351,75.434 L185.351,93.618 C185.351,95.126 185.351,96.588 186.125,98.1 L153.671,98.1 C154.445,96.588 154.445,95.126 154.445,93.618 L154.445,50.404 C154.445,48.892 154.445,47.43 153.671,45.922 L186.125,45.922 C185.351,47.43 185.351,48.892 185.351,50.404 L185.351,69.29 C185.351,69.29 195.723,56.096 198.095,53.022 C199.902,50.707 202.12,47.431 202.12,45.923 L235.967,45.923 C233.645,47.431 231.067,50.153 228.951,52.669 C227.093,54.887 216.567,67.429 216.567,67.429 C216.567,67.429 232.151,90.645 234.214,93.619 L234.213,93.618 Z" id="K" fill="#0058A3"></path>
        <path d="M142.294,46 L107,46 C107.774,47.508 107.774,48.97 107.774,50.482 L107.774,93.696 C107.774,95.204 107.774,96.666 107,98.178 L142.294,98.178 C141.52,96.666 141.52,95.204 141.52,93.696 L141.52,50.482 C141.52,48.97 141.52,47.508 142.294,46 Z" id="I" fill="#0058A3"></path>
    </g>
</svg>